<svg class="svg-icon" style="width: 1em; height: 1em;vertical-align: middle;fill: currentColor;overflow: hidden;" viewBox="0 0 1024 1024" version="1.1" xmlns="http://www.w3.org/2000/svg"><path d="M740.8 430c-4.2 0-8.2 0.9-12.3 1.2-26.2-109.4-124-190.9-241.5-190.9-109.3 0-201.2 70.9-234.6 168.9-0.6 1-1.3 1.9-1.9 3-83.8 20.1-144.2 94.7-144.2 182.8 0 104.1 84.7 188.8 188.8 188.8 39.4 0 433.8 0 445.7 0 97.7 0 176.8-79.2 176.8-176.8C917.7 509.2 838.5 430 740.8 430zM740.8 719.7 295.1 719.7c-68.8 0-124.8-56-124.8-124.8 0-57.5 39.1-107.1 95.2-120.5 16.7-4 31.1-14.6 39.9-29.2 1-1.6 2.3-3.7 3-4.9 1.8-3.3 3.4-6.8 4.6-10.4 25.7-75.1 95.6-125.6 174.1-125.6 85.5 0 159.2 58.3 179.2 141.9 6.9 28.9 32.8 49.1 62.2 49.1 1.5 0 3-0.1 4.5-0.2 3.1-0.2 6.2-0.6 7.8-1.1 62.2 0 112.8 50.6 112.8 112.8C853.7 669.1 803.1 719.7 740.8 719.7z"  /><path d="M566.2 556.6 544 578.8 544 400c0-17.7-14.3-32-32-32-17.7 0-32 14.3-32 32l0 178.8-22.2-22.2c-12.5-12.5-32.8-12.5-45.2 0s-12.5 32.8 0 45.2l76.8 76.8c6.2 6.2 14.4 9.4 22.6 9.4s16.4-3.1 22.6-9.4l76.8-76.8c12.5-12.5 12.5-32.8 0-45.2S578.7 544.1 566.2 556.6z"  /></svg>